<?xml version="1.0" encoding="UTF-8" standalone="no"?>
<!DOCTYPE svg PUBLIC "-//W3C//DTD SVG 1.1//EN" "http://www.w3.org/Graphics/SVG/1.1/DTD/svg11.dtd">
<svg width="100%" height="100%" viewBox="0 0 48 48" version="1.1" xmlns="http://www.w3.org/2000/svg" xmlns:xlink="http://www.w3.org/1999/xlink" xml:space="preserve" xmlns:serif="http://www.serif.com/" style="fill-rule:evenodd;clip-rule:evenodd;stroke-linejoin:round;stroke-miterlimit:2;">
    <g transform="matrix(1,0,0,1,-145.593,-195.924)">
        <g>
            <g transform="matrix(56.7434,0,0,60.9686,146.251,240.229)">
                <path d="M0.585,-0.486L0.578,-0.45C0.578,-0.449 0.575,-0.432 0.57,-0.399L0.552,-0.283C0.551,-0.272 0.549,-0.264 0.549,-0.258C0.548,-0.255 0.548,-0.252 0.548,-0.249C0.548,-0.247 0.548,-0.245 0.548,-0.243C0.548,-0.232 0.551,-0.223 0.557,-0.218C0.563,-0.212 0.57,-0.209 0.58,-0.209C0.599,-0.209 0.62,-0.219 0.643,-0.239C0.665,-0.258 0.684,-0.284 0.697,-0.317C0.711,-0.349 0.718,-0.384 0.718,-0.42C0.718,-0.451 0.712,-0.481 0.701,-0.508C0.69,-0.536 0.672,-0.559 0.647,-0.578C0.622,-0.597 0.593,-0.611 0.56,-0.619C0.527,-0.628 0.492,-0.632 0.457,-0.632C0.409,-0.632 0.365,-0.625 0.323,-0.611C0.28,-0.597 0.243,-0.574 0.21,-0.542C0.177,-0.511 0.151,-0.472 0.132,-0.426C0.114,-0.379 0.104,-0.331 0.104,-0.281C0.104,-0.245 0.11,-0.21 0.122,-0.178C0.134,-0.146 0.152,-0.119 0.176,-0.097C0.201,-0.075 0.23,-0.059 0.265,-0.049C0.3,-0.04 0.337,-0.035 0.376,-0.035C0.397,-0.035 0.419,-0.036 0.441,-0.039C0.464,-0.042 0.485,-0.047 0.505,-0.054C0.525,-0.061 0.547,-0.072 0.571,-0.088C0.575,-0.075 0.58,-0.061 0.585,-0.048C0.556,-0.028 0.523,-0.013 0.488,-0.004C0.453,0.006 0.414,0.011 0.371,0.011C0.324,0.011 0.279,0.004 0.237,-0.009C0.194,-0.022 0.159,-0.041 0.132,-0.067C0.104,-0.093 0.083,-0.123 0.071,-0.159C0.058,-0.195 0.051,-0.234 0.051,-0.277C0.051,-0.334 0.062,-0.389 0.085,-0.443C0.107,-0.497 0.137,-0.541 0.174,-0.576C0.211,-0.611 0.254,-0.637 0.304,-0.653C0.354,-0.669 0.407,-0.677 0.461,-0.677C0.504,-0.677 0.544,-0.672 0.583,-0.661C0.622,-0.651 0.656,-0.634 0.684,-0.611C0.712,-0.589 0.734,-0.56 0.749,-0.527C0.764,-0.493 0.771,-0.457 0.771,-0.419C0.771,-0.375 0.761,-0.333 0.742,-0.294C0.722,-0.254 0.695,-0.222 0.661,-0.198C0.626,-0.173 0.591,-0.16 0.556,-0.16C0.534,-0.16 0.516,-0.166 0.503,-0.176C0.489,-0.187 0.482,-0.201 0.482,-0.219C0.473,-0.209 0.465,-0.201 0.459,-0.196C0.453,-0.19 0.445,-0.184 0.434,-0.178C0.424,-0.173 0.412,-0.168 0.399,-0.165C0.386,-0.162 0.373,-0.16 0.36,-0.16C0.337,-0.16 0.316,-0.166 0.297,-0.176C0.278,-0.187 0.264,-0.202 0.255,-0.221C0.245,-0.24 0.241,-0.261 0.241,-0.286C0.241,-0.322 0.25,-0.357 0.269,-0.393C0.288,-0.429 0.314,-0.456 0.348,-0.473C0.382,-0.491 0.423,-0.5 0.472,-0.5C0.485,-0.5 0.499,-0.499 0.513,-0.498C0.528,-0.497 0.551,-0.493 0.585,-0.486ZM0.512,-0.443C0.494,-0.447 0.477,-0.45 0.461,-0.45C0.431,-0.45 0.404,-0.443 0.381,-0.431C0.357,-0.418 0.339,-0.399 0.325,-0.372C0.312,-0.346 0.305,-0.319 0.305,-0.292C0.305,-0.277 0.308,-0.264 0.313,-0.251C0.318,-0.238 0.327,-0.228 0.339,-0.221C0.351,-0.213 0.364,-0.209 0.379,-0.209C0.392,-0.209 0.404,-0.212 0.416,-0.216C0.427,-0.22 0.438,-0.227 0.448,-0.236C0.458,-0.245 0.466,-0.255 0.473,-0.266C0.479,-0.278 0.485,-0.289 0.489,-0.301C0.492,-0.313 0.496,-0.331 0.5,-0.357C0.504,-0.383 0.508,-0.412 0.512,-0.443Z" style="fill:rgb(0,55,103);fill-rule:nonzero;"/>
            </g>
            <g transform="matrix(0.847161,0,0,0.847161,95.623,-5.90913)">
                <rect x="58.985" y="238.247" width="56.628" height="56.628" style="fill:none;"/>
            </g>
        </g>
    </g>
</svg>
