<svg width="22" height="22" viewBox="0 0 22 22" fill="none" xmlns="http://www.w3.org/2000/svg">
<path d="M12.5 5.49219C12.5 5.91406 12.3516 6.27344 12.0547 6.57031C11.7734 6.85156 11.4219 6.99219 11 6.99219C10.5781 6.99219 10.2188 6.85156 9.92188 6.57031C9.64062 6.27344 9.5 5.91406 9.5 5.49219C9.5 5.08594 9.64062 4.73437 9.92188 4.4375C10.2188 4.14063 10.5781 3.99219 11 3.99219C11.4219 3.99219 11.7734 4.14063 12.0547 4.4375C12.3516 4.73437 12.5 5.08594 12.5 5.49219ZM5.5625 7.50781C5.42188 7.49219 5.29688 7.52344 5.1875 7.60156C5.07812 7.67969 5.01562 7.78906 5 7.92969C4.98438 8.07031 5.01562 8.19531 5.09375 8.30469C5.1875 8.41406 5.29688 8.47656 5.42188 8.49219L9.07812 8.98438C9.1875 9 9.28125 9.05469 9.35938 9.14844C9.45312 9.24219 9.5 9.35156 9.5 9.47656V12.8984C9.5 12.9141 9.5 12.9297 9.5 12.9453C9.5 12.9609 9.49219 12.9766 9.47656 12.9922L8.51562 17.3984C8.48438 17.5234 8.5 17.6484 8.5625 17.7734C8.64062 17.8828 8.75 17.9531 8.89062 17.9844C9.03125 18.0156 9.15625 18 9.26562 17.9375C9.39062 17.8594 9.46094 17.75 9.47656 17.6094L10.3203 13.8828C10.3359 13.7734 10.3906 13.6875 10.4844 13.625C10.5781 13.5469 10.6875 13.5078 10.8125 13.5078H11.1875C11.3125 13.5078 11.4219 13.5469 11.5156 13.625C11.6094 13.6875 11.6641 13.7734 11.6797 13.8828L12.5234 17.6094C12.5391 17.75 12.6016 17.8594 12.7109 17.9375C12.8359 18 12.9688 18.0156 13.1094 17.9844C13.25 17.9531 13.3516 17.8828 13.4141 17.7734C13.4922 17.6484 13.5156 17.5234 13.4844 17.3984L12.5234 12.9922C12.5078 12.9766 12.5 12.9609 12.5 12.9453C12.5 12.9297 12.5 12.9141 12.5 12.8984V9.47656C12.5 9.35156 12.5391 9.24219 12.6172 9.14844C12.7109 9.05469 12.8125 9 12.9219 8.98438L16.5781 8.49219C16.7031 8.47656 16.8047 8.41406 16.8828 8.30469C16.9766 8.19531 17.0156 8.07031 17 7.92969C16.9844 7.78906 16.9219 7.67969 16.8125 7.60156C16.7031 7.52344 16.5781 7.49219 16.4375 7.50781L12.0078 8.11719C11.6797 8.16406 11.3438 8.1875 11 8.1875C10.6562 8.1875 10.3203 8.16406 9.99219 8.11719L5.5625 7.50781ZM21.0078 11C21.0078 9.625 20.7422 8.32812 20.2109 7.10938C19.6953 5.89062 18.9844 4.82812 18.0781 3.92188C17.1719 3.01563 16.1094 2.30469 14.8906 1.78906C13.6719 1.25781 12.375 0.992188 11 0.992188C9.625 0.992188 8.32812 1.25781 7.10938 1.78906C5.89062 2.30469 4.82812 3.01563 3.92188 3.92188C3.01562 4.82812 2.30469 5.89062 1.78906 7.10938C1.25781 8.32812 0.992188 9.625 0.992188 11C0.992188 12.375 1.25781 13.6719 1.78906 14.8906C2.30469 16.1094 3.01562 17.1719 3.92188 18.0781C4.82812 18.9844 5.89062 19.6953 7.10938 20.2109C8.32812 20.7422 9.625 21.0078 11 21.0078C12.375 21.0078 13.6719 20.7422 14.8906 20.2109C16.1094 19.6953 17.1719 18.9844 18.0781 18.0781C18.9844 17.1719 19.6953 16.1094 20.2109 14.8906C20.7422 13.6719 21.0078 12.375 21.0078 11ZM20 11C20 12.25 19.7656 13.4141 19.2969 14.4922C18.8281 15.5859 18.1797 16.5469 17.3516 17.375C16.5391 18.1875 15.5859 18.8281 14.4922 19.2969C13.4141 19.7656 12.25 20 11 20C9.75 20 8.58594 19.7656 7.50781 19.2969C6.41406 18.8281 5.45312 18.1875 4.625 17.375C3.8125 16.5469 3.17188 15.5859 2.70312 14.4922C2.23438 13.4141 2 12.25 2 11C2 9.75 2.23438 8.58594 2.70312 7.50781C3.17188 6.41406 3.8125 5.46094 4.625 4.64844C5.45312 3.82031 6.41406 3.17188 7.50781 2.70312C8.58594 2.23438 9.75 2 11 2C12.25 2 13.4141 2.23438 14.4922 2.70312C15.5859 3.17188 16.5391 3.82031 17.3516 4.64844C18.1797 5.46094 18.8281 6.41406 19.2969 7.50781C19.7656 8.58594 20 9.75 20 11Z" fill="white"/>
</svg>
