<?xml version="1.0" encoding="UTF-8" standalone="no"?>
<!DOCTYPE svg PUBLIC "-//W3C//DTD SVG 1.1//EN" "http://www.w3.org/Graphics/SVG/1.1/DTD/svg11.dtd">
<svg width="100%" height="100%" viewBox="0 0 48 48" version="1.1" xmlns="http://www.w3.org/2000/svg" xmlns:xlink="http://www.w3.org/1999/xlink" xml:space="preserve" xmlns:serif="http://www.serif.com/" style="fill-rule:evenodd;clip-rule:evenodd;stroke-linecap:round;stroke-linejoin:round;stroke-miterlimit:1.5;">
    <g transform="matrix(1,0,0,1,-72.9198,-195.904)">
        <g transform="matrix(1,0,0,1,4.66419,-45.9111)">
            <g>
                <g>
                    <g transform="matrix(1,0,0,1,-71.8653,-41.4556)">
                        <circle cx="164.107" cy="307.257" r="19.902" style="fill:none;stroke:rgb(0,55,103);stroke-width:2.17px;"/>
                    </g>
                    <g transform="matrix(1,0,0,1,-72.294,-39.0002)">
                        <path d="M164.157,300L164.157,294.84L173.131,303.841C173.801,304.516 173.819,305.19 173.131,305.864L164.157,314.764L164.157,309.875L155.533,309.875L155.432,300L164.157,300Z" style="fill:none;stroke:rgb(0,55,103);stroke-width:2.2px;"/>
                    </g>
                </g>
            </g>
            <g transform="matrix(0.847161,0,0,0.847161,18.2855,39.9819)">
                <rect x="58.985" y="238.247" width="56.628" height="56.628" style="fill:none;"/>
            </g>
        </g>
    </g>
</svg>
