<?xml version="1.0" encoding="UTF-8" standalone="no"?>
<!DOCTYPE svg PUBLIC "-//W3C//DTD SVG 1.1//EN" "http://www.w3.org/Graphics/SVG/1.1/DTD/svg11.dtd">
<svg width="100%" height="100%" viewBox="0 0 55 55" version="1.1" xmlns="http://www.w3.org/2000/svg" xmlns:xlink="http://www.w3.org/1999/xlink" xml:space="preserve" xmlns:serif="http://www.serif.com/" style="fill-rule:evenodd;clip-rule:evenodd;stroke-linecap:round;stroke-linejoin:round;stroke-miterlimit:1.5;">
    <g transform="matrix(1,0,0,1,-600.871,-438.771)">
        <g>
            <g transform="matrix(1,0,0,1,-33.2838,-8.03762)">
                <g transform="matrix(-0.624498,-0.563978,0.563978,-0.624498,651.152,978.737)">
                    <rect x="375.903" y="442.977" width="41.871" height="8.089" style="fill:rgb(0,55,103);stroke:rgb(0,55,103);stroke-width:2.61px;"/>
                    <g transform="matrix(0.953917,0,0,1,18.7699,0)">
                        <path d="M418.279,443.196C418.279,439.385 415.036,436.291 411.041,436.291L381.624,436.291C377.629,436.291 374.386,439.385 374.386,443.196L374.386,462.266C374.386,466.077 377.629,469.171 381.624,469.171L411.041,469.171C415.036,469.171 418.279,466.077 418.279,462.266L418.279,443.196Z" style="fill:none;stroke:rgb(0,55,103);stroke-width:2.68px;"/>
                    </g>
                </g>
                <g transform="matrix(1.21986,0,0,1,-158.695,23.6267)">
                    <path d="M668.215,427.439L691.223,427.439L691.307,452.731L688.779,473.925L670.743,473.925L668.299,452.731L668.215,427.439Z" style="fill:white;"/>
                </g>
                <g transform="matrix(1,0,0,1,-8.84058,23.6267)">
                    <path d="M668.215,427.439L691.223,427.439L691.307,452.731L688.779,473.925L670.743,473.925L668.299,452.731L668.215,427.439Z" style="fill:none;stroke:rgb(0,55,103);stroke-width:2.2px;"/>
                </g>
                <g transform="matrix(0.310569,0,0,0.123844,456.385,426.584)">
                    <rect x="672.366" y="432.311" width="14.486" height="18.754" style="fill:rgb(0,55,103);"/>
                </g>
                <g transform="matrix(0.310569,0,0,0.123844,456.385,431.106)">
                    <rect x="672.366" y="432.311" width="14.486" height="18.754" style="fill:rgb(0,55,103);"/>
                </g>
                <g transform="matrix(0.310569,0,0,0.123844,456.402,435.767)">
                    <rect x="672.366" y="432.311" width="14.486" height="18.754" style="fill:rgb(0,55,103);"/>
                </g>
                <g transform="matrix(0.310569,0,0,0.123844,463.324,426.584)">
                    <rect x="672.366" y="432.311" width="14.486" height="18.754" style="fill:rgb(0,55,103);"/>
                </g>
                <g transform="matrix(0.310569,0,0,0.123844,463.324,431.106)">
                    <rect x="672.366" y="432.311" width="14.486" height="18.754" style="fill:rgb(0,55,103);"/>
                </g>
                <g transform="matrix(0.310569,0,0,0.123844,463.341,435.767)">
                    <rect x="672.366" y="432.311" width="14.486" height="18.754" style="fill:rgb(0,55,103);"/>
                </g>
                <g transform="matrix(0.930182,0,0,1,38.7771,23.6267)">
                    <rect x="672.366" y="432.311" width="14.486" height="18.754" style="fill:none;stroke:rgb(0,55,103);stroke-width:2.28px;"/>
                </g>
            </g>
            <g transform="matrix(0.768317,0,0,1.01847,463.294,-46.9079)">
                <rect x="179.063" y="476.872" width="71.585" height="54.003" style="fill:none;"/>
            </g>
        </g>
    </g>
</svg>
