<?xml version="1.0" encoding="UTF-8" standalone="no"?>
<!DOCTYPE svg PUBLIC "-//W3C//DTD SVG 1.1//EN" "http://www.w3.org/Graphics/SVG/1.1/DTD/svg11.dtd">
<svg width="100%" height="100%" viewBox="0 0 55 55" version="1.1" xmlns="http://www.w3.org/2000/svg" xmlns:xlink="http://www.w3.org/1999/xlink" xml:space="preserve" xmlns:serif="http://www.serif.com/" style="fill-rule:evenodd;clip-rule:evenodd;stroke-linecap:round;stroke-linejoin:round;stroke-miterlimit:1.5;">
    <g transform="matrix(1,0,0,1,-10.1626,-400.788)">
        <g>
            <g>
                <path d="M36.482,443.804L36.482,405.112L57.025,405.112L57.025,434.562" style="fill:none;stroke:rgb(0,55,103);stroke-width:2.2px;"/>
                <g transform="matrix(0.543442,0,0,0.534168,-17.7892,311.388)">
                    <path d="M120.672,220.794C122.481,218.508 124.29,218.696 126.099,220.794L145.926,254.572C147.644,257.835 146.775,261.486 144.435,261.486L102.28,261.486C99.716,261.486 99.205,257.419 100.696,254.572L120.672,220.794Z" style="fill:white;stroke:rgb(0,55,103);stroke-width:4.08px;"/>
                    <g transform="matrix(1.26993,0,0,1.31404,-2.93207,-41.3188)">
                        <text x="90.326px" y="232.751px" style="font-family:'AgencyFB-Reg', 'Agency FB', sans-serif;font-stretch:condensed;font-size:46.543px;fill:rgb(0,55,103);">+</text>
                    </g>
                </g>
                <g transform="matrix(1,0,0,1,-76.8581,85.6021)">
                    <path d="M109.825,320.588L94.516,328.435L109.7,359.435" style="fill:none;stroke:rgb(0,55,103);stroke-width:2.2px;"/>
                </g>
                <g transform="matrix(1,0,0,1,-76.8581,85.6021)">
                    <path d="M96.147,342.45L90.18,359.435L106.836,365.861" style="fill:none;stroke:rgb(0,55,103);stroke-width:2.2px;"/>
                </g>
            </g>
            <g transform="matrix(0.768317,0,0,1.01847,-127.415,-84.8911)">
                <rect x="179.063" y="476.872" width="71.585" height="54.003" style="fill:none;"/>
            </g>
        </g>
    </g>
</svg>
