<?xml version="1.0" encoding="UTF-8" standalone="no"?>
<!DOCTYPE svg PUBLIC "-//W3C//DTD SVG 1.1//EN" "http://www.w3.org/Graphics/SVG/1.1/DTD/svg11.dtd">
<svg width="100%" height="100%" viewBox="0 0 55 56" version="1.1" xmlns="http://www.w3.org/2000/svg" xmlns:xlink="http://www.w3.org/1999/xlink" xml:space="preserve" xmlns:serif="http://www.serif.com/" style="fill-rule:evenodd;clip-rule:evenodd;stroke-linecap:round;stroke-linejoin:round;stroke-miterlimit:1.5;">
    <g transform="matrix(1,0,0,1,-356.207,-315.226)">
        <g transform="matrix(1,0,0,1,228.07,-98.3537)">
            <g transform="matrix(0.883388,0,0,0.883388,36.4712,132.599)">
                <g transform="matrix(1,0,0,1,19.7579,6.10409)">
                    <rect x="113.34" y="319.51" width="20.543" height="45.882" style="fill:none;stroke:rgb(0,55,103);stroke-width:2.49px;"/>
                    <path d="M109.825,320.588L94.516,328.435L109.7,359.435" style="fill:none;stroke:rgb(0,55,103);stroke-width:2.49px;"/>
                    <path d="M96.147,342.45L90.18,359.435L106.836,365.861" style="fill:none;stroke:rgb(0,55,103);stroke-width:2.49px;"/>
                </g>
                <g transform="matrix(1.19324,0,0,1.25243,-305.204,30.5344)">
                    <ellipse cx="377.091" cy="269.008" rx="12.656" ry="9.688" style="fill:white;stroke:white;stroke-width:2.04px;"/>
                </g>
                <g transform="matrix(1,0,0,1,-228.98,98.3537)">
                    <g transform="matrix(0.938095,0,0,1,-245.98,-55.9027)">
                        <path d="M651.424,329.515C651.424,312.683 676.708,313.464 676.708,329.515" style="fill:none;stroke:rgb(0,55,103);stroke-width:2.57px;"/>
                    </g>
                    <path d="M360.77,269.094L365.118,273.612L369.92,269.455" style="fill:none;stroke:rgb(0,55,103);stroke-width:2.49px;"/>
                </g>
            </g>
            <g transform="matrix(0.768317,0,0,1.01847,-9.43958,-72.0993)">
                <rect x="179.063" y="476.872" width="71.585" height="54.003" style="fill:none;"/>
            </g>
        </g>
    </g>
</svg>
