<?xml version="1.0" encoding="UTF-8" standalone="no"?>
<!DOCTYPE svg PUBLIC "-//W3C//DTD SVG 1.1//EN" "http://www.w3.org/Graphics/SVG/1.1/DTD/svg11.dtd">
<svg width="100%" height="100%" viewBox="0 0 55 55" version="1.1" xmlns="http://www.w3.org/2000/svg" xmlns:xlink="http://www.w3.org/1999/xlink" xml:space="preserve" xmlns:serif="http://www.serif.com/" style="fill-rule:evenodd;clip-rule:evenodd;stroke-linecap:round;stroke-linejoin:round;stroke-miterlimit:1.5;">
    <g transform="matrix(1,0,0,1,-42.3131,-272.5)">
        <g>
            <g transform="matrix(1,0,0,1,-596.579,-40.2595)">
                <path d="M651.424,329.515C651.424,312.683 676.708,313.464 676.708,329.515" style="fill:none;stroke:rgb(0,55,103);stroke-width:2.2px;"/>
                <path d="M662.873,363.337L676.708,363.337L676.708,357.88C679.419,355.344 681.038,352.66 681.259,349.784L681.36,342.157C680.021,340.278 678.292,339.601 676.105,340.339C674.618,338.487 673.088,338.339 671.531,339.245C670.782,337.652 669.506,337.08 667.554,337.82L667.547,329.515C667.617,325.228 660.66,325.196 660.588,329.515L660.687,342.157C659.3,343.353 658.59,344.635 658.334,345.973L658.334,349.784C658.938,353.058 660.607,355.667 662.908,357.88L662.873,363.337Z" style="fill:none;stroke:rgb(0,55,103);stroke-width:2.2px;"/>
            </g>
            <g transform="matrix(0.768317,0,0,1.01847,-95.2643,-213.179)">
                <rect x="179.063" y="476.872" width="71.585" height="54.003" style="fill:none;"/>
            </g>
        </g>
    </g>
</svg>
